<svg width="46" height="43" viewBox="0 0 46 43" fill="none" xmlns="http://www.w3.org/2000/svg">
<path d="M19.2675 39.3049C19.5355 38.6006 19.6633 37.8488 19.6434 37.0935C19.6842 35.0002 20.2323 32.9498 21.2387 31.1254C22.2425 29.304 23.6741 27.7659 25.4046 26.6493C26.0454 26.2984 26.6097 25.8185 27.0636 25.2386C27.5174 24.6587 27.8513 23.9909 28.045 23.2755C28.2386 22.5601 28.2881 21.812 28.1904 21.0765C28.0927 20.341 27.8499 19.6334 27.4765 18.9965C26.9778 18.1457 26.2601 17.4482 25.4046 16.9841C24.9142 16.6368 24.443 16.2627 23.9939 15.8619L22.8684 14.7369C20.806 12.5238 19.6495 9.59016 19.6351 6.53567C19.6564 5.78019 19.5293 5.028 19.2612 4.32348C18.9931 3.61896 18.5896 2.97637 18.0743 2.43364C17.5613 1.89151 16.9466 1.46044 16.2668 1.16616C15.587 0.871881 14.8561 0.720422 14.1177 0.720826C13.3798 0.721888 12.6495 0.874019 11.9702 1.16822C11.2908 1.46242 10.6762 1.89271 10.1626 2.43364C9.64821 2.97733 9.24523 3.62028 8.97723 4.32486C8.70922 5.02945 8.58157 5.78152 8.60174 6.53708C8.61377 7.51785 8.87841 8.47812 9.36907 9.32145C9.85805 10.1634 10.5562 10.8585 11.3928 11.3366C14.7804 13.5247 17.1375 17.7083 17.1375 21.823C17.1291 24.851 15.9946 27.7627 13.9634 29.9694L11.4011 32.2925C10.5649 32.7693 9.8664 33.464 9.37596 34.3077C8.88415 35.1501 8.62103 36.1119 8.60863 37.0935C8.58756 37.8489 8.7148 38.6011 8.98286 39.3056C9.25092 40.01 9.65438 40.6526 10.1695 41.1955C10.6825 41.7375 11.2973 42.1685 11.977 42.4628C12.6568 42.757 13.3876 42.9086 14.126 42.9083C14.8642 42.9075 15.5947 42.7554 16.2743 42.4612C16.9539 42.167 17.5688 41.7366 18.0825 41.1955C18.5967 40.6519 18.9995 40.0092 19.2675 39.3049Z" fill="#8DA2FB"/>
<path d="M26.7505 9.66458C26.143 8.73364 25.8193 7.63817 25.8193 6.5188C25.8202 5.01935 26.4021 3.58114 27.438 2.51801C28.3387 1.59304 29.5266 1.01685 30.798 0.888295C32.0694 0.759743 33.345 1.08685 34.406 1.81348C35.3148 2.43632 36.0223 3.32008 36.4394 4.35317C36.8564 5.38743 36.9653 6.52431 36.7523 7.62144C36.5394 8.71856 36.0141 9.72718 35.2422 10.521C34.4727 11.3126 33.4895 11.8522 32.4182 12.0708C31.3469 12.2895 30.2361 12.1773 29.2275 11.7486C28.218 11.3195 27.3559 10.5942 26.7505 9.66458Z" fill="#8DA2FB"/>
<path d="M28.2728 32.3868C29.1807 31.7652 30.2483 31.4333 31.3394 31.4333V31.4305C32.0647 31.4314 32.7827 31.5785 33.4522 31.8632C34.1217 32.148 34.7295 32.5648 35.2408 33.0899C36.1445 34.0179 36.7065 35.2358 36.832 36.538C36.9575 37.8401 36.6388 39.1465 35.9296 40.2365C35.3243 41.1673 34.4617 41.8937 33.4513 42.3233C32.4427 42.752 31.3319 42.8642 30.2606 42.6455C29.1893 42.4269 28.2061 41.8873 27.4366 41.0957C26.6644 40.3018 26.139 39.2929 25.926 38.1955C25.7131 37.0981 25.8221 35.9609 26.2394 34.9265C26.6565 33.8934 27.3641 33.0097 28.2728 32.3868Z" fill="#8DA2FB"/>
<path d="M44.5329 18.6618C45.1388 19.5924 45.4626 20.686 45.4628 21.8049C45.4619 23.3047 44.88 24.7433 43.8441 25.8069C43.3326 26.3318 42.7248 26.7485 42.0553 27.0333C41.3858 27.318 40.6679 27.4652 39.9427 27.4663C38.8504 27.4663 37.7829 27.1344 36.8761 26.5129C35.9673 25.89 35.2597 25.0063 34.8427 23.9732C34.4253 22.9387 34.3163 21.8016 34.5293 20.7042C34.7422 19.6067 35.2677 18.5979 36.0398 17.804C36.8095 17.0121 37.7929 16.4723 38.8645 16.2536C39.9361 16.035 41.0472 16.1473 42.0559 16.5763C43.0656 17.0058 43.9277 17.7316 44.5329 18.6618Z" fill="#8DA2FB"/>
<path d="M2.45484 17.0994C3.36269 16.4778 4.42897 16.146 5.52143 16.146C6.24654 16.1475 6.96422 16.295 7.63343 16.58C8.30265 16.865 8.91025 17.2819 9.42148 17.8068C10.3247 18.7344 10.8865 19.9519 11.012 21.2534C11.1375 22.555 10.819 23.8609 10.1103 24.9505C9.50505 25.8806 8.643 26.6064 7.63333 27.036C6.62441 27.4626 5.51408 27.5736 4.44323 27.3551C3.37238 27.1365 2.38926 26.5982 1.61862 25.8083C0.846746 25.0145 0.321442 24.0059 0.108493 22.9088C-0.104456 21.8116 0.00441358 20.6748 0.42147 19.6405C0.838329 18.6069 1.54591 17.7227 2.45484 17.0994Z" fill="#8DA2FB"/>
</svg>
